<svg id="Capa_1" enable-background="new 0 0 512 512" height="512" viewBox="0 0 512 512" width="512" xmlns="http://www.w3.org/2000/svg"><g><g><path d="m70.81 56.57h-30.98c-4.143 0-7.5 3.358-7.5 7.5v286.89c0 4.142 3.357 7.5 7.5 7.5h432.34c4.143 0 7.5-3.358 7.5-7.5v-286.89c0-4.142-3.357-7.5-7.5-7.5h-366.36c-4.143 0-7.5 3.358-7.5 7.5s3.357 7.5 7.5 7.5h358.86v271.89h-417.34v-271.89h23.48c4.143 0 7.5-3.358 7.5-7.5s-3.358-7.5-7.5-7.5z"/><path d="m484.3 24.24h-456.6c-15.274 0-27.7 12.431-27.7 27.71v311.13c0 15.274 12.426 27.7 27.7 27.7h160.947l-7.758 49.65h-17.819c-4.143 0-7.5 3.358-7.5 7.5v32.33c0 4.142 3.357 7.5 7.5 7.5h185.86c4.143 0 7.5-3.358 7.5-7.5v-32.33c0-4.142-3.357-7.5-7.5-7.5h-17.819l-7.758-49.65h77.218c4.143 0 7.5-3.358 7.5-7.5s-3.357-7.5-7.5-7.5h-372.871c-7.003 0-12.7-5.697-12.7-12.7v-311.13c0-7.008 5.697-12.71 12.7-12.71h456.6c7.003 0 12.7 5.702 12.7 12.71v311.13c0 7.002-5.697 12.7-12.7 12.7h-48.73c-4.143 0-7.5 3.358-7.5 7.5s3.357 7.5 7.5 7.5h48.73c15.274 0 27.7-12.426 27.7-27.7v-311.13c0-15.279-12.426-27.71-27.7-27.71zm-168.372 416.19h-13.138c-4.143 0-7.5 3.358-7.5 7.5s3.357 7.5 7.5 7.5h21.86c.011 0 .021.001.032.001.006 0 .013-.001.019-.001h16.728v17.33h-170.859v-17.33h16.728c.006 0 .013.001.019.001.011 0 .021-.001.032-.001h80.44c4.143 0 7.5-3.358 7.5-7.5s-3.357-7.5-7.5-7.5h-71.719l7.758-49.65h104.341z"/><path d="m110.75 183.85c-3.144-9.381-12.011-16.163-22.437-16.163-13.048 0-23.663 10.615-23.663 23.663s10.615 23.663 23.663 23.663c10.426 0 19.292-6.781 22.437-16.163h49.16c.514 6.556 1.698 13.046 3.521 19.346h-7.438c-3.188 0-6.026 2.014-7.079 5.022l-5.313 15.181h-.526c-3.144-9.381-12.011-16.163-22.437-16.163-13.048 0-23.663 10.615-23.663 23.663s10.615 23.663 23.663 23.663c10.426 0 19.292-6.781 22.437-16.163h5.848c3.188 0 6.026-2.014 7.079-5.022l5.313-15.181h7.848c.463.96.939 1.914 1.435 2.858 2.868 5.463 1.854 12.075-2.523 16.453-7.125 7.125-7.125 18.719.001 25.845l11.025 11.025c3.557 3.558 8.456 5.543 13.495 5.436 1.631-.034 3.216-.281 4.723-.727v7.709c0 10.077 8.198 18.275 18.275 18.275h80.812c10.077 0 18.275-8.198 18.275-18.275v-7.709c1.507.446 3.092.693 4.723.727 5.026.097 9.938-1.878 13.494-5.436l11.027-11.026c7.125-7.125 7.125-18.719 0-25.845-4.38-4.379-5.4-10.978-2.542-16.418.502-.956.986-1.921 1.455-2.892h7.846l5.313 15.181c1.053 3.008 3.892 5.022 7.079 5.022h5.848c3.144 9.381 12.011 16.163 22.437 16.163 13.048 0 23.663-10.615 23.663-23.663s-10.615-23.663-23.663-23.663c-10.426 0-19.292 6.781-22.437 16.163h-.526l-5.313-15.181c-1.053-3.008-3.892-5.022-7.079-5.022h-7.433c1.822-6.297 2.998-12.781 3.512-19.346h49.165c3.144 9.381 12.011 16.163 22.437 16.163 13.048 0 23.663-10.615 23.663-23.663s-10.615-23.663-23.663-23.663c-10.426 0-19.292 6.781-22.437 16.163h-49.154c-.51-6.602-1.701-13.076-3.526-19.346h7.437c3.188 0 6.026-2.014 7.079-5.022l5.313-15.181h.526c3.144 9.381 12.011 16.163 22.437 16.163 13.048 0 23.663-10.615 23.663-23.663s-10.615-23.663-23.663-23.663c-10.426 0-19.292 6.781-22.437 16.163h-5.848c-3.188 0-6.026 2.014-7.079 5.022l-5.313 15.181h-7.898c-4.798-9.879-11.302-18.982-19.37-26.893-37.883-37.401-98.456-36.274-135.039.044-8.044 7.919-14.518 16.992-19.275 26.849h-7.787l-5.313-15.181c-1.053-3.008-3.892-5.022-7.079-5.022h-5.848c-3.144-9.381-12.011-16.163-22.437-16.163-13.048 0-23.663 10.615-23.663 23.663s10.615 23.663 23.663 23.663c10.426 0 19.292-6.781 22.437-16.163h.526l5.313 15.181c1.053 3.008 3.892 5.022 7.079 5.022h7.38c-1.803 6.26-2.977 12.734-3.481 19.346zm9.889 70.711c-4.776 0-8.663-3.886-8.663-8.663s3.887-8.663 8.663-8.663 8.662 3.886 8.662 8.663-3.886 8.663-8.662 8.663zm270.722-17.325c4.776 0 8.663 3.886 8.663 8.663s-3.887 8.663-8.663 8.663-8.662-3.886-8.662-8.663 3.886-8.663 8.662-8.663zm0-109.098c4.776 0 8.663 3.886 8.663 8.663s-3.887 8.663-8.663 8.663-8.662-3.886-8.662-8.663 3.886-8.663 8.662-8.663zm-270.722 17.325c-4.776 0-8.663-3.886-8.663-8.663s3.887-8.663 8.663-8.663 8.662 3.886 8.662 8.663-3.886 8.663-8.662 8.663zm-32.326 54.549c-4.776 0-8.663-3.886-8.663-8.663s3.887-8.663 8.663-8.663 8.662 3.886 8.662 8.663-3.885 8.663-8.662 8.663zm335.374-17.325c4.776 0 8.663 3.886 8.663 8.663s-3.887 8.663-8.663 8.663-8.662-3.886-8.662-8.663 3.885-8.663 8.662-8.663zm-224.787-49.343c15.662-15.42 36.399-23.735 58.405-23.378 43.376.678 78.533 35.154 80.039 78.486.491 14.162-2.703 28.222-9.238 40.658-5.933 11.288-3.838 24.952 5.212 34.002 1.277 1.277 1.277 3.355.001 4.632l-11.027 11.026c-.673.674-1.654 1.058-2.579 1.045-.729-.015-1.313-.258-1.741-.722-2.967-3.222-7.513-4.279-11.586-2.688-4.072 1.59-6.704 5.441-6.704 9.812v15.577c0 1.806-1.47 3.275-3.275 3.275h-13.713v-10.683c0-4.142-3.357-7.5-7.5-7.5s-7.5 3.358-7.5 7.5v10.683h-23.387v-10.683c0-4.142-3.357-7.5-7.5-7.5s-7.5 3.358-7.5 7.5v10.683h-13.713c-1.806 0-3.275-1.469-3.275-3.275v-15.577c0-4.371-2.632-8.222-6.704-9.812-1.259-.491-2.562-.729-3.851-.729-2.881 0-5.686 1.192-7.736 3.418-.427.463-1.012.706-1.74.721-.957.015-1.905-.371-2.58-1.045l-11.025-11.026c-1.277-1.277-1.277-3.355 0-4.632 9.046-9.046 11.135-22.723 5.197-34.032-6.153-11.72-9.273-24.415-9.273-37.731-.002-21.981 8.626-42.581 24.293-58.005z"/><path d="m288.333 247.337c13.956 0 25.31-11.354 25.31-25.31 0-.824.017-1.691.034-2.583.136-7.155.321-16.954-7.088-22.126-5.105-3.564-11.966-3.594-20.975-.091-7.333 2.852-22.592 8.787-22.592 24.8 0 13.956 11.355 25.31 25.311 25.31zm2.719-36.129c3.454-1.344 5.396-1.585 6.344-1.585.258 0 .442.018.563.036.87 1.604.77 6.9.72 9.501-.019.99-.036 1.953-.036 2.868 0 5.685-4.625 10.31-10.31 10.31-5.686 0-10.311-4.625-10.311-10.31 0-3.644 2.132-6.582 13.03-10.82z"/><path d="m198.357 222.027c0 13.956 11.354 25.31 25.31 25.31s25.311-11.354 25.311-25.31c0-16.013-15.259-21.948-22.592-24.8-9.008-3.502-15.87-3.473-20.975.091-7.409 5.172-7.224 14.971-7.088 22.126.018.892.034 1.76.034 2.583zm15.684-12.368c.568-.084 2.515-.16 6.907 1.548 10.897 4.239 13.029 7.177 13.029 10.82 0 5.685-4.625 10.31-10.311 10.31-5.685 0-10.31-4.625-10.31-10.31 0-.915-.018-1.877-.036-2.868-.049-2.6-.149-7.896.721-9.5z"/></g></g></svg>